<?xml version="1.0" encoding="UTF-8" standalone="no"?>
<!DOCTYPE svg PUBLIC "-//W3C//DTD SVG 1.1//EN"
 "http://www.w3.org/Graphics/SVG/1.1/DTD/svg11.dtd">
<!-- Generated by graphviz version 2.47.0 (20210316.0004)
 -->
<!-- Title: dbml Pages: 1 -->
<svg width="1606pt" height="1347pt"
 viewBox="0.00 0.00 1605.60 1347.10" xmlns="http://www.w3.org/2000/svg" xmlns:xlink="http://www.w3.org/1999/xlink">
<style>
.edge text { paint-order: stroke; stroke: white; stroke-width: 4px; stroke-linejoin: round; }
.edge:hover path:not([stroke="white"]) { stroke: #DC2626; stroke-width: 4; }
.edge:hover polygon { stroke: #DC2626; fill: #DC2626; }
.edge:hover ellipse, .edge:hover polyline { stroke: #DC2626; }
.edge:hover text { fill: #DC2626; font-weight: bold; }
</style>
<g id="graph0" class="graph" transform="scale(1 1) rotate(0) translate(28.8 1318.3)">
<title>dbml</title>
<polygon fill="white" stroke="transparent" points="-28.8,28.8 -28.8,-1318.3 1576.8,-1318.3 1576.8,28.8 -28.8,28.8"/>
<text text-anchor="start" x="147.95" y="-1266.7" font-family="Arial" font-weight="bold" font-size="22.00">SkillSwap · 03 · Classes, bookings &amp; interaction</text>
<text text-anchor="start" x="8" y="-1252.8" font-family="Arial" font-size="13.00">Crow’s Foot: circle = 0; bar = 1; fork = N. Solid = identifying; dashed = non&#45;identifying. PK / FK / UQn = key labels; (!) = NOT NULL.</text>
<!-- users -->
<g id="users" class="node">
<title>users</title>
<polygon fill="#1d4ed8" stroke="transparent" points="1270.5,-798.5 1270.5,-837.5 1547.5,-837.5 1547.5,-798.5 1270.5,-798.5"/>
<polygon fill="none" stroke="#64748b" points="1270.5,-798.5 1270.5,-837.5 1547.5,-837.5 1547.5,-798.5 1270.5,-798.5"/>
<text text-anchor="start" x="1387" y="-813.3" font-family="Arial" font-weight="bold" font-size="18.00" fill="white">users</text>
<polygon fill="none" stroke="#64748b" points="1270.5,-755.5 1270.5,-798.5 1547.5,-798.5 1547.5,-755.5 1270.5,-755.5"/>
<text text-anchor="start" x="1281.5" y="-772.3" font-family="Arial" font-weight="bold" font-size="18.00">id</text>
<text text-anchor="start" x="1395.5" y="-772.3" font-family="Arial" font-style="italic" font-size="18.00">uuid (!)</text>
<text text-anchor="start" x="1520.49" y="-773.4" font-family="Arial" font-size="12.00" fill="#475569">PK</text>
<polygon fill="none" stroke="#64748b" points="1270.5,-712.5 1270.5,-755.5 1547.5,-755.5 1547.5,-712.5 1270.5,-712.5"/>
<text text-anchor="start" x="1281.5" y="-728.3" font-family="Arial" font-size="18.00">email</text>
<text text-anchor="start" x="1360.51" y="-729.3" font-family="Arial" font-style="italic" font-size="18.00">varchar(320) (!)</text>
<text text-anchor="start" x="1511.83" y="-730.4" font-family="Arial" font-size="12.00" fill="#475569">UQ1</text>
<polygon fill="none" stroke="#64748b" points="1270.5,-669.5 1270.5,-712.5 1547.5,-712.5 1547.5,-669.5 1270.5,-669.5"/>
<text text-anchor="start" x="1281.5" y="-685.3" font-family="Arial" font-size="18.00">status</text>
<text text-anchor="start" x="1379.51" y="-686.3" font-family="Arial" font-style="italic" font-size="18.00">varchar(24) (!)</text>
<text text-anchor="start" x="1529.17" y="-687.4" font-family="Arial" font-size="12.00" fill="#475569"> </text>
<polygon fill="none" stroke="#64748b" points="1270.5,-626.5 1270.5,-669.5 1547.5,-669.5 1547.5,-626.5 1270.5,-626.5"/>
<text text-anchor="start" x="1281.5" y="-642.3" font-family="Arial" font-size="18.00">created_at</text>
<text text-anchor="start" x="1390.51" y="-643.3" font-family="Arial" font-style="italic" font-size="18.00">timestamptz (!)</text>
<text text-anchor="start" x="1529.17" y="-644.4" font-family="Arial" font-size="12.00" fill="#475569"> </text>
<polygon fill="none" stroke="#64748b" points="1270.5,-583.5 1270.5,-626.5 1547.5,-626.5 1547.5,-583.5 1270.5,-583.5"/>
<text text-anchor="start" x="1281.47" y="-599.3" font-family="Arial" font-size="18.00">updated_at</text>
<text text-anchor="start" x="1393" y="-600.3" font-family="Arial" font-style="italic" font-size="18.00">timestamptz (!)</text>
<text text-anchor="start" x="1529.34" y="-601.4" font-family="Arial" font-size="12.00" fill="#475569"> </text>
<polygon fill="#f8fafc" stroke="transparent" points="1270.5,-550.5 1270.5,-583.5 1547.5,-583.5 1547.5,-550.5 1270.5,-550.5"/>
<polygon fill="none" stroke="#64748b" points="1270.5,-550.5 1270.5,-583.5 1547.5,-583.5 1547.5,-550.5 1270.5,-550.5"/>
<text text-anchor="start" x="1279.5" y="-562.8" font-family="Arial" font-size="13.00" fill="#334155">UQ1: (email)</text>
<polygon fill="none" stroke="#64748b" points="1269,-550 1269,-839 1548,-839 1548,-550 1269,-550"/>
</g>
<!-- skills -->
<g id="skills" class="node">
<title>skills</title>
<polygon fill="#7c3aed" stroke="transparent" points="867,-162.5 867,-201.5 1121,-201.5 1121,-162.5 867,-162.5"/>
<polygon fill="none" stroke="#64748b" points="867,-162.5 867,-201.5 1121,-201.5 1121,-162.5 867,-162.5"/>
<text text-anchor="start" x="974.51" y="-177.3" font-family="Arial" font-weight="bold" font-size="18.00" fill="white">skills</text>
<polygon fill="none" stroke="#64748b" points="867,-119.5 867,-162.5 1121,-162.5 1121,-119.5 867,-119.5"/>
<text text-anchor="start" x="878" y="-136.3" font-family="Arial" font-weight="bold" font-size="18.00">id</text>
<text text-anchor="start" x="978" y="-136.3" font-family="Arial" font-style="italic" font-size="18.00">uuid (!)</text>
<text text-anchor="start" x="1093.99" y="-137.4" font-family="Arial" font-size="12.00" fill="#475569">PK</text>
<polygon fill="none" stroke="#64748b" points="867,-76.5 867,-119.5 1121,-119.5 1121,-76.5 867,-76.5"/>
<text text-anchor="start" x="877.99" y="-92.3" font-family="Arial" font-size="18.00">name</text>
<text text-anchor="start" x="944.5" y="-93.3" font-family="Arial" font-style="italic" font-size="18.00">varchar(160) (!)</text>
<text text-anchor="start" x="1085.67" y="-94.4" font-family="Arial" font-size="12.00" fill="#475569">UQ1</text>
<polygon fill="none" stroke="#64748b" points="867,-33.5 867,-76.5 1121,-76.5 1121,-33.5 867,-33.5"/>
<text text-anchor="start" x="878" y="-49.3" font-family="Arial" font-size="18.00">active</text>
<text text-anchor="start" x="978.98" y="-50.3" font-family="Arial" font-style="italic" font-size="18.00">boolean (!)</text>
<text text-anchor="start" x="1102.67" y="-51.4" font-family="Arial" font-size="12.00" fill="#475569"> </text>
<polygon fill="#f8fafc" stroke="transparent" points="867,-0.5 867,-33.5 1121,-33.5 1121,-0.5 867,-0.5"/>
<polygon fill="none" stroke="#64748b" points="867,-0.5 867,-33.5 1121,-33.5 1121,-0.5 867,-0.5"/>
<text text-anchor="start" x="876" y="-12.8" font-family="Arial" font-size="13.00" fill="#334155">UQ1: (name)</text>
<polygon fill="none" stroke="#64748b" points="866,0 866,-203 1122,-203 1122,0 866,0"/>
</g>
<!-- classes -->
<g id="classes" class="node">
<title>classes</title>
<polygon fill="#047857" stroke="transparent" points="814,-1078.5 814,-1117.5 1174,-1117.5 1174,-1078.5 814,-1078.5"/>
<polygon fill="none" stroke="#64748b" points="814,-1078.5 814,-1117.5 1174,-1117.5 1174,-1078.5 814,-1078.5"/>
<text text-anchor="start" x="964" y="-1093.3" font-family="Arial" font-weight="bold" font-size="18.00" fill="white">classes</text>
<polygon fill="none" stroke="#64748b" points="814,-1035.5 814,-1078.5 1174,-1078.5 1174,-1035.5 814,-1035.5"/>
<text text-anchor="start" x="825" y="-1052.3" font-family="Arial" font-weight="bold" font-size="18.00">id</text>
<text text-anchor="start" x="989" y="-1052.3" font-family="Arial" font-style="italic" font-size="18.00">uuid (!)</text>
<text text-anchor="start" x="1146.99" y="-1053.4" font-family="Arial" font-size="12.00" fill="#475569">PK</text>
<polygon fill="none" stroke="#64748b" points="814,-992.5 814,-1035.5 1174,-1035.5 1174,-992.5 814,-992.5"/>
<text text-anchor="start" x="825" y="-1008.3" font-family="Arial" font-size="18.00">teacher_id</text>
<text text-anchor="start" x="1018" y="-1009.3" font-family="Arial" font-style="italic" font-size="18.00">uuid (!)</text>
<text text-anchor="start" x="1147.67" y="-1010.4" font-family="Arial" font-size="12.00" fill="#475569">FK</text>
<polygon fill="none" stroke="#64748b" points="814,-949.5 814,-992.5 1174,-992.5 1174,-949.5 814,-949.5"/>
<text text-anchor="start" x="825" y="-965.3" font-family="Arial" font-size="18.00">title</text>
<text text-anchor="start" x="958.01" y="-966.3" font-family="Arial" font-style="italic" font-size="18.00">varchar(200) (!)</text>
<text text-anchor="start" x="1155.67" y="-967.4" font-family="Arial" font-size="12.00" fill="#475569"> </text>
<polygon fill="none" stroke="#64748b" points="814,-906.5 814,-949.5 1174,-949.5 1174,-906.5 814,-906.5"/>
<text text-anchor="start" x="825" y="-922.3" font-family="Arial" font-size="18.00">description</text>
<text text-anchor="start" x="1026" y="-923.3" font-family="Arial" font-style="italic" font-size="18.00">text (!)</text>
<text text-anchor="start" x="1155.67" y="-924.4" font-family="Arial" font-size="12.00" fill="#475569"> </text>
<polygon fill="none" stroke="#64748b" points="814,-863.5 814,-906.5 1174,-906.5 1174,-863.5 814,-863.5"/>
<text text-anchor="start" x="825" y="-879.3" font-family="Arial" font-size="18.00">starts_at</text>
<text text-anchor="start" x="978.01" y="-880.3" font-family="Arial" font-style="italic" font-size="18.00">timestamptz (!)</text>
<text text-anchor="start" x="1155.67" y="-881.4" font-family="Arial" font-size="12.00" fill="#475569"> </text>
<polygon fill="none" stroke="#64748b" points="814,-820.5 814,-863.5 1174,-863.5 1174,-820.5 814,-820.5"/>
<text text-anchor="start" x="825" y="-836.3" font-family="Arial" font-size="18.00">duration_minutes</text>
<text text-anchor="start" x="1053.01" y="-837.3" font-family="Arial" font-style="italic" font-size="18.00">int (!)</text>
<text text-anchor="start" x="1155.67" y="-838.4" font-family="Arial" font-size="12.00" fill="#475569"> </text>
<polygon fill="none" stroke="#64748b" points="814,-777.5 814,-820.5 1174,-820.5 1174,-777.5 814,-777.5"/>
<text text-anchor="start" x="825" y="-793.3" font-family="Arial" font-size="18.00">price_credits</text>
<text text-anchor="start" x="984.01" y="-794.3" font-family="Arial" font-style="italic" font-size="18.00">decimal(18,3) (!)</text>
<text text-anchor="start" x="1155.67" y="-795.4" font-family="Arial" font-size="12.00" fill="#475569"> </text>
<polygon fill="none" stroke="#64748b" points="814,-734.5 814,-777.5 1174,-777.5 1174,-734.5 814,-734.5"/>
<text text-anchor="start" x="825" y="-750.3" font-family="Arial" font-size="18.00">capacity</text>
<text text-anchor="start" x="1023.01" y="-751.3" font-family="Arial" font-style="italic" font-size="18.00">int (!)</text>
<text text-anchor="start" x="1155.67" y="-752.4" font-family="Arial" font-size="12.00" fill="#475569"> </text>
<polygon fill="none" stroke="#64748b" points="814,-691.5 814,-734.5 1174,-734.5 1174,-691.5 814,-691.5"/>
<text text-anchor="start" x="825" y="-707.3" font-family="Arial" font-size="18.00">status</text>
<text text-anchor="start" x="972.01" y="-708.3" font-family="Arial" font-style="italic" font-size="18.00">varchar(24) (!)</text>
<text text-anchor="start" x="1155.67" y="-709.4" font-family="Arial" font-size="12.00" fill="#475569"> </text>
<polygon fill="none" stroke="#64748b" points="814,-648.5 814,-691.5 1174,-691.5 1174,-648.5 814,-648.5"/>
<text text-anchor="start" x="825" y="-664.3" font-family="Arial" font-size="18.00">jitsi_room_ref</text>
<text text-anchor="start" x="992.99" y="-665.3" font-family="Arial" font-style="italic" font-size="18.00">varchar(255)</text>
<text text-anchor="start" x="1138.33" y="-666.4" font-family="Arial" font-size="12.00" fill="#475569">UQ1</text>
<polygon fill="none" stroke="#64748b" points="814,-605.5 814,-648.5 1174,-648.5 1174,-605.5 814,-605.5"/>
<text text-anchor="start" x="824.99" y="-621.3" font-family="Arial" font-size="18.00">commitments_locked_at</text>
<text text-anchor="start" x="1041" y="-622.3" font-family="Arial" font-style="italic" font-size="18.00">timestamptz</text>
<text text-anchor="start" x="1155.84" y="-623.4" font-family="Arial" font-size="12.00" fill="#475569"> </text>
<polygon fill="none" stroke="#64748b" points="814,-562.5 814,-605.5 1174,-605.5 1174,-562.5 814,-562.5"/>
<text text-anchor="start" x="825" y="-578.3" font-family="Arial" font-size="18.00">completed_at</text>
<text text-anchor="start" x="1007" y="-579.3" font-family="Arial" font-style="italic" font-size="18.00">timestamptz</text>
<text text-anchor="start" x="1155.67" y="-580.4" font-family="Arial" font-size="12.00" fill="#475569"> </text>
<polygon fill="none" stroke="#64748b" points="814,-519.5 814,-562.5 1174,-562.5 1174,-519.5 814,-519.5"/>
<text text-anchor="start" x="825" y="-535.3" font-family="Arial" font-size="18.00">completed_by</text>
<text text-anchor="start" x="1041.99" y="-536.3" font-family="Arial" font-style="italic" font-size="18.00">uuid</text>
<text text-anchor="start" x="1147.67" y="-537.4" font-family="Arial" font-size="12.00" fill="#475569">FK</text>
<polygon fill="none" stroke="#64748b" points="814,-476.5 814,-519.5 1174,-519.5 1174,-476.5 814,-476.5"/>
<text text-anchor="start" x="825" y="-492.3" font-family="Arial" font-size="18.00">created_at</text>
<text text-anchor="start" x="985.01" y="-493.3" font-family="Arial" font-style="italic" font-size="18.00">timestamptz (!)</text>
<text text-anchor="start" x="1155.67" y="-494.4" font-family="Arial" font-size="12.00" fill="#475569"> </text>
<polygon fill="none" stroke="#64748b" points="814,-433.5 814,-476.5 1174,-476.5 1174,-433.5 814,-433.5"/>
<text text-anchor="start" x="825" y="-449.3" font-family="Arial" font-size="18.00">updated_at</text>
<text text-anchor="start" x="987.01" y="-450.3" font-family="Arial" font-style="italic" font-size="18.00">timestamptz (!)</text>
<text text-anchor="start" x="1155.67" y="-451.4" font-family="Arial" font-size="12.00" fill="#475569"> </text>
<polygon fill="#f8fafc" stroke="transparent" points="814,-400.5 814,-433.5 1174,-433.5 1174,-400.5 814,-400.5"/>
<polygon fill="none" stroke="#64748b" points="814,-400.5 814,-433.5 1174,-433.5 1174,-400.5 814,-400.5"/>
<text text-anchor="start" x="823" y="-412.8" font-family="Arial" font-size="13.00" fill="#334155">UQ1: (jitsi_room_ref)</text>
<polygon fill="#f8fafc" stroke="transparent" points="814,-367.5 814,-400.5 1174,-400.5 1174,-367.5 814,-367.5"/>
<polygon fill="none" stroke="#64748b" points="814,-367.5 814,-400.5 1174,-400.5 1174,-367.5 814,-367.5"/>
<text text-anchor="start" x="823" y="-379.8" font-family="Arial" font-size="13.00" fill="#334155">Draft: 0..N ClassSkills; published: at least 1.</text>
<polygon fill="#f8fafc" stroke="transparent" points="814,-334.5 814,-367.5 1174,-367.5 1174,-334.5 814,-334.5"/>
<polygon fill="none" stroke="#64748b" points="814,-334.5 814,-367.5 1174,-367.5 1174,-334.5 814,-334.5"/>
<text text-anchor="start" x="823" y="-346.8" font-family="Arial" font-size="13.00" fill="#334155">Completion actor may be NULL for system completion.</text>
<polygon fill="none" stroke="#64748b" points="813,-334 813,-1119 1175,-1119 1175,-334 813,-334"/>
</g>
<!-- classes&#45;&gt;users -->
<g id="relation&#45;0" class="edge" data-from="classes.teacher_id" data-to="users.id" data-from-cardinality="0..N" data-to-cardinality="1..1">
<title>classes.teacher_id [0..N] — users.id [1..1]; non-identifying</title>
<path fill="none" stroke="white" stroke-width="7"  d="M1183.72,-992.63C1203.14,-943.93 1249.42,-827.85 1264.59,-789.8"/><path fill="none" stroke="#047857" stroke-width="2" stroke-dasharray="5,2" d="M1183.72,-992.63C1203.14,-943.93 1249.42,-827.85 1264.59,-789.8"/>
<polygon fill="#047857" stroke="#047857" stroke-width="2" points="1179.81,-1002.42 1169.57,-1012.33 1177.41,-1008.46 1175,-1014.5 1175,-1014.5 1175,-1014.5 1177.41,-1008.46 1180.43,-1016.67 1179.81,-1002.42 1179.81,-1002.42"/>
<ellipse fill="none" stroke="#047857" stroke-width="2" cx="1181.74" cy="-997.59" rx="5.2" ry="5.2"/>
<polygon fill="#047857" stroke="#047857" stroke-width="2" points="1262.98,-776.3 1275.06,-781.12 1274.09,-783.53 1262.02,-778.72 1262.98,-776.3"/>
<polyline fill="none" stroke="#047857" stroke-width="2" points="1269.5,-777.5 1267.09,-783.54 "/>
<polygon fill="#047857" stroke="#047857" stroke-width="2" points="1260.57,-782.34 1272.65,-787.15 1271.69,-789.57 1259.61,-784.75 1260.57,-782.34"/>
<polyline fill="none" stroke="#047857" stroke-width="2" points="1267.09,-783.54 1264.69,-789.58 "/>
</g>
<!-- classes&#45;&gt;users -->
<g id="relation&#45;1" class="edge" data-from="classes.completed_by" data-to="users.id" data-from-cardinality="0..N" data-to-cardinality="0..1">
<title>classes.completed_by [0..N] — users.id [0..1]; non-identifying</title>
<path fill="none" stroke="white" stroke-width="7"  d="M1183.72,-562.37C1202.59,-609.7 1246.83,-720.65 1263.24,-761.79"/><path fill="none" stroke="#047857" stroke-width="2" stroke-dasharray="5,2" d="M1183.72,-562.37C1202.59,-609.7 1246.83,-720.65 1263.24,-761.79"/>
<polygon fill="#047857" stroke="#047857" stroke-width="2" points="1179.81,-552.58 1180.43,-538.33 1177.41,-546.54 1175,-540.5 1175,-540.5 1175,-540.5 1177.41,-546.54 1169.57,-542.67 1179.81,-552.58 1179.81,-552.58"/>
<ellipse fill="none" stroke="#047857" stroke-width="2" cx="1181.74" cy="-557.41" rx="5.2" ry="5.2"/>
<polygon fill="#047857" stroke="#047857" stroke-width="2" points="1275.06,-773.88 1262.98,-778.7 1262.02,-776.28 1274.09,-771.47 1275.06,-773.88"/>
<polyline fill="none" stroke="#047857" stroke-width="2" points="1269.5,-777.5 1267.09,-771.46 "/>
<ellipse fill="none" stroke="#047857" stroke-width="2" cx="1265.17" cy="-766.63" rx="5.2" ry="5.2"/>
</g>
<!-- class_skills -->
<g id="class_skills" class="node">
<title>class_skills</title>
<polygon fill="#047857" stroke="transparent" points="413.5,-228.5 413.5,-267.5 673.5,-267.5 673.5,-228.5 413.5,-228.5"/>
<polygon fill="none" stroke="#64748b" points="413.5,-228.5 413.5,-267.5 673.5,-267.5 673.5,-228.5 413.5,-228.5"/>
<text text-anchor="start" x="498.51" y="-243.3" font-family="Arial" font-weight="bold" font-size="18.00" fill="white">class_skills</text>
<polygon fill="none" stroke="#64748b" points="413.5,-185.5 413.5,-228.5 673.5,-228.5 673.5,-185.5 413.5,-185.5"/>
<text text-anchor="start" x="424.5" y="-202.3" font-family="Arial" font-weight="bold" font-size="18.00">class_id</text>
<text text-anchor="start" x="535.5" y="-202.3" font-family="Arial" font-style="italic" font-size="18.00">uuid (!)</text>
<text text-anchor="start" x="624.49" y="-203.4" font-family="Arial" font-size="12.00" fill="#475569">PK, FK</text>
<polygon fill="none" stroke="#64748b" points="413.5,-142.5 413.5,-185.5 673.5,-185.5 673.5,-142.5 413.5,-142.5"/>
<text text-anchor="start" x="424.5" y="-159.3" font-family="Arial" font-weight="bold" font-size="18.00">skill_id</text>
<text text-anchor="start" x="530.5" y="-159.3" font-family="Arial" font-style="italic" font-size="18.00">uuid (!)</text>
<text text-anchor="start" x="624.49" y="-160.4" font-family="Arial" font-size="12.00" fill="#475569">PK, FK</text>
<polygon fill="none" stroke="#64748b" points="413.5,-99.5 413.5,-142.5 673.5,-142.5 673.5,-99.5 413.5,-99.5"/>
<text text-anchor="start" x="424.49" y="-115.3" font-family="Arial" font-size="18.00">target_level</text>
<text text-anchor="start" x="539.01" y="-116.3" font-family="Arial" font-style="italic" font-size="18.00">skill_level (!)</text>
<text text-anchor="start" x="655.34" y="-117.4" font-family="Arial" font-size="12.00" fill="#475569"> </text>
<polygon fill="#f8fafc" stroke="transparent" points="413.5,-66.5 413.5,-99.5 673.5,-99.5 673.5,-66.5 413.5,-66.5"/>
<polygon fill="none" stroke="#64748b" points="413.5,-66.5 413.5,-99.5 673.5,-99.5 673.5,-66.5 413.5,-66.5"/>
<text text-anchor="start" x="422.5" y="-78.8" font-family="Arial" font-size="13.00" fill="#334155">PK: (class_id, skill_id)</text>
<polygon fill="none" stroke="#64748b" points="412.5,-66 412.5,-269 674.5,-269 674.5,-66 412.5,-66"/>
</g>
<!-- class_skills&#45;&gt;skills -->
<g id="relation&#45;3" class="edge" data-from="class_skills.skill_id" data-to="skills.id" data-from-cardinality="0..N" data-to-cardinality="1..1">
<title>class_skills.skill_id [0..N] — skills.id [1..1]; identifying</title>
<path fill="none" stroke="white" stroke-width="7" d="M697.98,-160.8C738.73,-156.12 821.23,-146.64 853.06,-142.99"/><path fill="none" stroke="#047857" stroke-width="2" d="M697.98,-160.8C738.73,-156.12 821.23,-146.64 853.06,-142.99"/>
<polygon fill="#047857" stroke="#047857" stroke-width="2" points="687.42,-162.02 673.83,-157.69 680.96,-162.76 674.5,-163.5 674.5,-163.5 674.5,-163.5 680.96,-162.76 675.17,-169.31 687.42,-162.02 687.42,-162.02"/>
<ellipse fill="none" stroke="#047857" stroke-width="2" cx="692.58" cy="-161.42" rx="5.2" ry="5.2"/>
<polygon fill="#047857" stroke="#047857" stroke-width="2" points="863.97,-135.19 865.45,-148.11 862.87,-148.4 861.38,-135.49 863.97,-135.19"/>
<polyline fill="none" stroke="#047857" stroke-width="2" points="866,-141.5 859.54,-142.24 "/>
<polygon fill="#047857" stroke="#047857" stroke-width="2" points="857.51,-135.93 858.99,-148.85 856.41,-149.14 854.93,-136.23 857.51,-135.93"/>
<polyline fill="none" stroke="#047857" stroke-width="2" points="859.54,-142.24 853.08,-142.98 "/>
</g>
<!-- class_skills&#45;&gt;classes -->
<g id="relation&#45;2" class="edge" data-from="class_skills.class_id" data-to="classes.id" data-from-cardinality="0..N" data-to-cardinality="1..1">
<title>class_skills.class_id [0..N] — classes.id [1..1]; identifying</title>
<path fill="none" stroke="white" stroke-width="7" d="M679.87,-230.42C691.7,-280.95 719,-397.5 719,-397.5 719,-397.5 798.04,-952.48 811.16,-1044.61"/><path fill="none" stroke="#047857" stroke-width="2" d="M679.87,-230.42C691.7,-280.95 719,-397.5 719,-397.5 719,-397.5 798.04,-952.48 811.16,-1044.61"/>
<polygon fill="#047857" stroke="#047857" stroke-width="2" points="677.46,-220.16 680.2,-206.17 675.98,-213.83 674.5,-207.5 674.5,-207.5 674.5,-207.5 675.98,-213.83 668.8,-208.83 677.46,-220.16 677.46,-220.16"/>
<ellipse fill="none" stroke="#047857" stroke-width="2" cx="678.65" cy="-225.22" rx="5.2" ry="5.2"/>
<polygon fill="#047857" stroke="#047857" stroke-width="2" points="819.25,-1055.3 806.38,-1057.13 806.02,-1054.56 818.89,-1052.72 819.25,-1055.3"/>
<polyline fill="none" stroke="#047857" stroke-width="2" points="813,-1057.5 812.08,-1051.06 "/>
<polygon fill="#047857" stroke="#047857" stroke-width="2" points="818.34,-1048.86 805.47,-1050.69 805.1,-1048.12 817.97,-1046.29 818.34,-1048.86"/>
<polyline fill="none" stroke="#047857" stroke-width="2" points="812.08,-1051.06 811.17,-1044.63 "/>
</g>
<!-- bookings -->
<g id="bookings" class="node">
<title>bookings</title>
<polygon fill="#047857" stroke="transparent" points="369.5,-863.5 369.5,-902.5 718.5,-902.5 718.5,-863.5 369.5,-863.5"/>
<polygon fill="none" stroke="#64748b" points="369.5,-863.5 369.5,-902.5 718.5,-902.5 718.5,-863.5 369.5,-863.5"/>
<text text-anchor="start" x="507.99" y="-878.3" font-family="Arial" font-weight="bold" font-size="18.00" fill="white">bookings</text>
<polygon fill="none" stroke="#64748b" points="369.5,-820.5 369.5,-863.5 718.5,-863.5 718.5,-820.5 369.5,-820.5"/>
<text text-anchor="start" x="380.5" y="-837.3" font-family="Arial" font-weight="bold" font-size="18.00">id</text>
<text text-anchor="start" x="537.5" y="-837.3" font-family="Arial" font-style="italic" font-size="18.00">uuid (!)</text>
<text text-anchor="start" x="691.49" y="-838.4" font-family="Arial" font-size="12.00" fill="#475569">PK</text>
<polygon fill="none" stroke="#64748b" points="369.5,-777.5 369.5,-820.5 718.5,-820.5 718.5,-777.5 369.5,-777.5"/>
<text text-anchor="start" x="380.5" y="-793.3" font-family="Arial" font-size="18.00">class_id</text>
<text text-anchor="start" x="558.5" y="-794.3" font-family="Arial" font-style="italic" font-size="18.00">uuid (!)</text>
<text text-anchor="start" x="692.17" y="-795.4" font-family="Arial" font-size="12.00" fill="#475569">FK</text>
<polygon fill="none" stroke="#64748b" points="369.5,-734.5 369.5,-777.5 718.5,-777.5 718.5,-734.5 369.5,-734.5"/>
<text text-anchor="start" x="380.5" y="-750.3" font-family="Arial" font-size="18.00">learner_id</text>
<text text-anchor="start" x="545.5" y="-751.3" font-family="Arial" font-style="italic" font-size="18.00">uuid (!)</text>
<text text-anchor="start" x="660.83" y="-752.4" font-family="Arial" font-size="12.00" fill="#475569">FK, UQ1</text>
<polygon fill="none" stroke="#64748b" points="369.5,-691.5 369.5,-734.5 718.5,-734.5 718.5,-691.5 369.5,-691.5"/>
<text text-anchor="start" x="380.5" y="-707.3" font-family="Arial" font-size="18.00">status</text>
<text text-anchor="start" x="521.51" y="-708.3" font-family="Arial" font-style="italic" font-size="18.00">varchar(24) (!)</text>
<text text-anchor="start" x="700.17" y="-709.4" font-family="Arial" font-size="12.00" fill="#475569"> </text>
<polygon fill="none" stroke="#64748b" points="369.5,-648.5 369.5,-691.5 718.5,-691.5 718.5,-648.5 369.5,-648.5"/>
<text text-anchor="start" x="380.5" y="-664.3" font-family="Arial" font-size="18.00">price_credits</text>
<text text-anchor="start" x="533.51" y="-665.3" font-family="Arial" font-style="italic" font-size="18.00">decimal(18,3) (!)</text>
<text text-anchor="start" x="700.17" y="-666.4" font-family="Arial" font-size="12.00" fill="#475569"> </text>
<polygon fill="none" stroke="#64748b" points="369.5,-605.5 369.5,-648.5 718.5,-648.5 718.5,-605.5 369.5,-605.5"/>
<text text-anchor="start" x="380.48" y="-621.3" font-family="Arial" font-size="18.00">idempotency_key</text>
<text text-anchor="start" x="542" y="-622.3" font-family="Arial" font-style="italic" font-size="18.00">varchar(128) (!)</text>
<text text-anchor="start" x="683.17" y="-623.4" font-family="Arial" font-size="12.00" fill="#475569">UQ1</text>
<polygon fill="none" stroke="#64748b" points="369.5,-562.5 369.5,-605.5 718.5,-605.5 718.5,-562.5 369.5,-562.5"/>
<text text-anchor="start" x="380.5" y="-578.3" font-family="Arial" font-size="18.00">created_at</text>
<text text-anchor="start" x="533.51" y="-579.3" font-family="Arial" font-style="italic" font-size="18.00">timestamptz (!)</text>
<text text-anchor="start" x="700.17" y="-580.4" font-family="Arial" font-size="12.00" fill="#475569"> </text>
<polygon fill="none" stroke="#64748b" points="369.5,-519.5 369.5,-562.5 718.5,-562.5 718.5,-519.5 369.5,-519.5"/>
<text text-anchor="start" x="380.5" y="-535.3" font-family="Arial" font-size="18.00">confirmed_at</text>
<text text-anchor="start" x="554.5" y="-536.3" font-family="Arial" font-style="italic" font-size="18.00">timestamptz</text>
<text text-anchor="start" x="700.17" y="-537.4" font-family="Arial" font-size="12.00" fill="#475569"> </text>
<polygon fill="#f8fafc" stroke="transparent" points="369.5,-486.5 369.5,-519.5 718.5,-519.5 718.5,-486.5 369.5,-486.5"/>
<polygon fill="none" stroke="#64748b" points="369.5,-486.5 369.5,-519.5 718.5,-519.5 718.5,-486.5 369.5,-486.5"/>
<text text-anchor="start" x="378.5" y="-498.8" font-family="Arial" font-size="13.00" fill="#334155">UQ1: (learner_id, idempotency_key)</text>
<polygon fill="#f8fafc" stroke="transparent" points="369.5,-453.5 369.5,-486.5 718.5,-486.5 718.5,-453.5 369.5,-453.5"/>
<polygon fill="none" stroke="#64748b" points="369.5,-453.5 369.5,-486.5 718.5,-486.5 718.5,-453.5 369.5,-453.5"/>
<text text-anchor="start" x="378.5" y="-465.8" font-family="Arial" font-size="13.00" fill="#334155">Confirmed: booking transfer required.</text>
<polygon fill="#f8fafc" stroke="transparent" points="369.5,-420.5 369.5,-453.5 718.5,-453.5 718.5,-420.5 369.5,-420.5"/>
<polygon fill="none" stroke="#64748b" points="369.5,-420.5 369.5,-453.5 718.5,-453.5 718.5,-420.5 369.5,-420.5"/>
<text text-anchor="start" x="378.5" y="-432.8" font-family="Arial" font-size="13.00" fill="#334155">At most 1 full release operation per Booking.</text>
<polygon fill="none" stroke="#64748b" points="368,-419.5 368,-903.5 719,-903.5 719,-419.5 368,-419.5"/>
</g>
<!-- bookings&#45;&gt;users -->
<g id="relation&#45;5" class="edge" data-from="bookings.learner_id" data-to="users.id" data-from-cardinality="0..N" data-to-cardinality="1..1">
<title>bookings.learner_id [0..N] — users.id [1..1]; non-identifying</title>
<path fill="none" stroke="white" stroke-width="7"  d="M723.86,-733.56C743.1,-642.64 813,-312.5 813,-312.5 813,-312.5 1175,-312.5 1175,-312.5 1175,-312.5 1251.61,-689.48 1266.87,-764.58"/><path fill="none" stroke="#047857" stroke-width="2" stroke-dasharray="5,2" d="M723.86,-733.56C743.1,-642.64 813,-312.5 813,-312.5 813,-312.5 1175,-312.5 1175,-312.5 1175,-312.5 1251.61,-689.48 1266.87,-764.58"/>
<polygon fill="#047857" stroke="#047857" stroke-width="2" points="721.69,-743.78 713.28,-755.29 720.35,-750.14 719,-756.5 719,-756.5 719,-756.5 720.35,-750.14 724.72,-757.71 721.69,-743.78 721.69,-743.78"/>
<ellipse fill="none" stroke="#047857" stroke-width="2" cx="722.77" cy="-738.69" rx="5.2" ry="5.2"/>
<polygon fill="#047857" stroke="#047857" stroke-width="2" points="1275.61,-774.93 1262.87,-777.52 1262.35,-774.97 1275.09,-772.38 1275.61,-774.93"/>
<polyline fill="none" stroke="#047857" stroke-width="2" points="1269.5,-777.5 1268.21,-771.13 "/>
<polygon fill="#047857" stroke="#047857" stroke-width="2" points="1274.32,-768.56 1261.58,-771.15 1261.06,-768.6 1273.8,-766.01 1274.32,-768.56"/>
<polyline fill="none" stroke="#047857" stroke-width="2" points="1268.21,-771.13 1266.91,-764.76 "/>
</g>
<!-- bookings&#45;&gt;classes -->
<g id="relation&#45;4" class="edge" data-from="bookings.class_id" data-to="classes.id" data-from-cardinality="0..N" data-to-cardinality="1..1">
<title>bookings.class_id [0..N] — classes.id [1..1]; non-identifying</title>
<path fill="none" stroke="white" stroke-width="7"  d="M727.01,-821.5C746.06,-873.77 793.56,-1004.13 808.46,-1045.03"/><path fill="none" stroke="#047857" stroke-width="2" stroke-dasharray="5,2" d="M727.01,-821.5C746.06,-873.77 793.56,-1004.13 808.46,-1045.03"/>
<polygon fill="#047857" stroke="#047857" stroke-width="2" points="723.45,-811.71 724.5,-797.5 721.23,-805.61 719,-799.5 719,-799.5 719,-799.5 721.23,-805.61 713.5,-801.5 723.45,-811.71 723.45,-811.71"/>
<ellipse fill="none" stroke="#047857" stroke-width="2" cx="725.23" cy="-816.6" rx="5.2" ry="5.2"/>
<polygon fill="#047857" stroke="#047857" stroke-width="2" points="818.66,-1054.05 806.45,-1058.5 805.56,-1056.06 817.77,-1051.61 818.66,-1054.05"/>
<polyline fill="none" stroke="#047857" stroke-width="2" points="813,-1057.5 810.77,-1051.39 "/>
<polygon fill="#047857" stroke="#047857" stroke-width="2" points="816.44,-1047.95 804.22,-1052.4 803.33,-1049.95 815.55,-1045.5 816.44,-1047.95"/>
<polyline fill="none" stroke="#047857" stroke-width="2" points="810.77,-1051.39 808.55,-1045.29 "/>
</g>
<!-- messages -->
<g id="messages" class="node">
<title>messages</title>
<polygon fill="#047857" stroke="transparent" points="407.5,-1206.5 407.5,-1245.5 679.5,-1245.5 679.5,-1206.5 407.5,-1206.5"/>
<polygon fill="none" stroke="#64748b" points="407.5,-1206.5 407.5,-1245.5 679.5,-1245.5 679.5,-1206.5 407.5,-1206.5"/>
<text text-anchor="start" x="502.49" y="-1221.3" font-family="Arial" font-weight="bold" font-size="18.00" fill="white">messages</text>
<polygon fill="none" stroke="#64748b" points="407.5,-1163.5 407.5,-1206.5 679.5,-1206.5 679.5,-1163.5 407.5,-1163.5"/>
<text text-anchor="start" x="418.5" y="-1180.3" font-family="Arial" font-weight="bold" font-size="18.00">id</text>
<text text-anchor="start" x="529.5" y="-1180.3" font-family="Arial" font-style="italic" font-size="18.00">uuid (!)</text>
<text text-anchor="start" x="652.49" y="-1181.4" font-family="Arial" font-size="12.00" fill="#475569">PK</text>
<polygon fill="none" stroke="#64748b" points="407.5,-1120.5 407.5,-1163.5 679.5,-1163.5 679.5,-1120.5 407.5,-1120.5"/>
<text text-anchor="start" x="418.5" y="-1136.3" font-family="Arial" font-size="18.00">class_id</text>
<text text-anchor="start" x="550.5" y="-1137.3" font-family="Arial" font-style="italic" font-size="18.00">uuid (!)</text>
<text text-anchor="start" x="653.17" y="-1138.4" font-family="Arial" font-size="12.00" fill="#475569">FK</text>
<polygon fill="none" stroke="#64748b" points="407.5,-1077.5 407.5,-1120.5 679.5,-1120.5 679.5,-1077.5 407.5,-1077.5"/>
<text text-anchor="start" x="418.5" y="-1093.3" font-family="Arial" font-size="18.00">sender_id</text>
<text text-anchor="start" x="555.5" y="-1094.3" font-family="Arial" font-style="italic" font-size="18.00">uuid (!)</text>
<text text-anchor="start" x="653.17" y="-1095.4" font-family="Arial" font-size="12.00" fill="#475569">FK</text>
<polygon fill="none" stroke="#64748b" points="407.5,-1034.5 407.5,-1077.5 679.5,-1077.5 679.5,-1034.5 407.5,-1034.5"/>
<text text-anchor="start" x="418.5" y="-1050.3" font-family="Arial" font-size="18.00">body</text>
<text text-anchor="start" x="547.5" y="-1051.3" font-family="Arial" font-style="italic" font-size="18.00">text (!)</text>
<text text-anchor="start" x="661.17" y="-1052.4" font-family="Arial" font-size="12.00" fill="#475569"> </text>
<polygon fill="none" stroke="#64748b" points="407.5,-991.5 407.5,-1034.5 679.5,-1034.5 679.5,-991.5 407.5,-991.5"/>
<text text-anchor="start" x="418.48" y="-1007.3" font-family="Arial" font-size="18.00">created_at</text>
<text text-anchor="start" x="525" y="-1008.3" font-family="Arial" font-style="italic" font-size="18.00">timestamptz (!)</text>
<text text-anchor="start" x="661.34" y="-1009.4" font-family="Arial" font-size="12.00" fill="#475569"> </text>
<polygon fill="none" stroke="#64748b" points="406.5,-990.5 406.5,-1246.5 680.5,-1246.5 680.5,-990.5 406.5,-990.5"/>
</g>
<!-- messages&#45;&gt;users -->
<g id="relation&#45;7" class="edge" data-from="messages.sender_id" data-to="users.id" data-from-cardinality="0..N" data-to-cardinality="1..1">
<title>messages.sender_id [0..N] — users.id [1..1]; non-identifying</title>
<path fill="none" stroke="white" stroke-width="7"  d="M702.98,-1105.62C740.78,-1117.61 813,-1140.5 813,-1140.5 813,-1140.5 1175,-1140.5 1175,-1140.5 1175,-1140.5 1249.3,-855.08 1266.14,-790.42"/><path fill="none" stroke="#047857" stroke-width="2" stroke-dasharray="5,2" d="M702.98,-1105.62C740.78,-1117.61 813,-1140.5 813,-1140.5 813,-1140.5 1175,-1140.5 1175,-1140.5 1175,-1140.5 1249.3,-855.08 1266.14,-790.42"/>
<polygon fill="#047857" stroke="#047857" stroke-width="2" points="692.89,-1102.43 682.27,-1092.92 686.7,-1100.46 680.5,-1098.5 680.5,-1098.5 680.5,-1098.5 686.7,-1100.46 678.73,-1104.08 692.89,-1102.43 692.89,-1102.43"/>
<ellipse fill="none" stroke="#047857" stroke-width="2" cx="697.85" cy="-1104" rx="5.2" ry="5.2"/>
<polygon fill="#047857" stroke="#047857" stroke-width="2" points="1262.88,-777.12 1275.46,-780.4 1274.81,-782.91 1262.23,-779.64 1262.88,-777.12"/>
<polyline fill="none" stroke="#047857" stroke-width="2" points="1269.5,-777.5 1267.86,-783.79 "/>
<polygon fill="#047857" stroke="#047857" stroke-width="2" points="1261.24,-783.41 1273.83,-786.69 1273.17,-789.2 1260.59,-785.93 1261.24,-783.41"/>
<polyline fill="none" stroke="#047857" stroke-width="2" points="1267.86,-783.79 1266.22,-790.08 "/>
</g>
<!-- messages&#45;&gt;classes -->
<g id="relation&#45;6" class="edge" data-from="messages.class_id" data-to="classes.id" data-from-cardinality="0..N" data-to-cardinality="1..1">
<title>messages.class_id [0..N] — classes.id [1..1]; non-identifying</title>
<path fill="none" stroke="white" stroke-width="7"  d="M700.34,-1129.77C728.64,-1111.62 779.64,-1078.9 802,-1064.56"/><path fill="none" stroke="#047857" stroke-width="2" stroke-dasharray="5,2" d="M700.34,-1129.77C728.64,-1111.62 779.64,-1078.9 802,-1064.56"/>
<polygon fill="#047857" stroke="#047857" stroke-width="2" points="691.44,-1135.48 677.34,-1137.58 685.97,-1138.99 680.5,-1142.5 680.5,-1142.5 680.5,-1142.5 685.97,-1138.99 683.66,-1147.42 691.44,-1135.48 691.44,-1135.48"/>
<ellipse fill="none" stroke="#047857" stroke-width="2" cx="695.82" cy="-1132.67" rx="5.2" ry="5.2"/>
<polygon fill="#047857" stroke="#047857" stroke-width="2" points="808.4,-1052.73 815.42,-1063.67 813.23,-1065.08 806.21,-1054.13 808.4,-1052.73"/>
<polyline fill="none" stroke="#047857" stroke-width="2" points="813,-1057.5 807.53,-1061.01 "/>
<polygon fill="#047857" stroke="#047857" stroke-width="2" points="802.93,-1056.24 809.94,-1067.18 807.76,-1068.59 800.74,-1057.64 802.93,-1056.24"/>
<polyline fill="none" stroke="#047857" stroke-width="2" points="807.53,-1061.01 802.06,-1064.52 "/>
</g>
<!-- ratings -->
<g id="ratings" class="node">
<title>ratings</title>
<polygon fill="#047857" stroke="transparent" points="1,-906.5 1,-945.5 273,-945.5 273,-906.5 1,-906.5"/>
<polygon fill="none" stroke="#64748b" points="1,-906.5 1,-945.5 273,-945.5 273,-906.5 1,-906.5"/>
<text text-anchor="start" x="110" y="-921.3" font-family="Arial" font-weight="bold" font-size="18.00" fill="white">ratings</text>
<polygon fill="none" stroke="#64748b" points="1,-863.5 1,-906.5 273,-906.5 273,-863.5 1,-863.5"/>
<text text-anchor="start" x="12" y="-880.3" font-family="Arial" font-weight="bold" font-size="18.00">id</text>
<text text-anchor="start" x="123" y="-880.3" font-family="Arial" font-style="italic" font-size="18.00">uuid (!)</text>
<text text-anchor="start" x="245.99" y="-881.4" font-family="Arial" font-size="12.00" fill="#475569">PK</text>
<polygon fill="none" stroke="#64748b" points="1,-820.5 1,-863.5 273,-863.5 273,-820.5 1,-820.5"/>
<text text-anchor="start" x="12" y="-836.3" font-family="Arial" font-size="18.00">booking_id</text>
<text text-anchor="start" x="134" y="-837.3" font-family="Arial" font-style="italic" font-size="18.00">uuid (!)</text>
<text text-anchor="start" x="215.33" y="-838.4" font-family="Arial" font-size="12.00" fill="#475569">FK, UQ1</text>
<polygon fill="none" stroke="#64748b" points="1,-777.5 1,-820.5 273,-820.5 273,-777.5 1,-777.5"/>
<text text-anchor="start" x="12" y="-793.3" font-family="Arial" font-size="18.00">score</text>
<text text-anchor="start" x="149.01" y="-794.3" font-family="Arial" font-style="italic" font-size="18.00">int (!)</text>
<text text-anchor="start" x="254.67" y="-795.4" font-family="Arial" font-size="12.00" fill="#475569"> </text>
<polygon fill="none" stroke="#64748b" points="1,-734.5 1,-777.5 273,-777.5 273,-734.5 1,-734.5"/>
<text text-anchor="start" x="12" y="-750.3" font-family="Arial" font-size="18.00">comment</text>
<text text-anchor="start" x="167.99" y="-751.3" font-family="Arial" font-style="italic" font-size="18.00">text</text>
<text text-anchor="start" x="254.67" y="-752.4" font-family="Arial" font-size="12.00" fill="#475569"> </text>
<polygon fill="none" stroke="#64748b" points="1,-691.5 1,-734.5 273,-734.5 273,-691.5 1,-691.5"/>
<text text-anchor="start" x="12" y="-707.3" font-family="Arial" font-size="18.00">status</text>
<text text-anchor="start" x="107.01" y="-708.3" font-family="Arial" font-style="italic" font-size="18.00">varchar(16) (!)</text>
<text text-anchor="start" x="254.67" y="-709.4" font-family="Arial" font-size="12.00" fill="#475569"> </text>
<polygon fill="none" stroke="#64748b" points="1,-648.5 1,-691.5 273,-691.5 273,-648.5 1,-648.5"/>
<text text-anchor="start" x="11.98" y="-664.3" font-family="Arial" font-size="18.00">created_at</text>
<text text-anchor="start" x="118.5" y="-665.3" font-family="Arial" font-style="italic" font-size="18.00">timestamptz (!)</text>
<text text-anchor="start" x="254.84" y="-666.4" font-family="Arial" font-size="12.00" fill="#475569"> </text>
<polygon fill="#f8fafc" stroke="transparent" points="1,-615.5 1,-648.5 273,-648.5 273,-615.5 1,-615.5"/>
<polygon fill="none" stroke="#64748b" points="1,-615.5 1,-648.5 273,-648.5 273,-615.5 1,-615.5"/>
<text text-anchor="start" x="10" y="-627.8" font-family="Arial" font-size="13.00" fill="#334155">UQ1: (booking_id)</text>
<polygon fill="none" stroke="#64748b" points="0,-614.5 0,-946.5 274,-946.5 274,-614.5 0,-614.5"/>
</g>
<!-- ratings&#45;&gt;bookings -->
<g id="relation&#45;8" class="edge" data-from="ratings.booking_id" data-to="bookings.id" data-from-cardinality="0..1" data-to-cardinality="1..1">
<title>ratings.booking_id [0..1] — bookings.id [1..1]; non-identifying</title>
<path fill="none" stroke="white" stroke-width="7"  d="M291.33,-842.5C309.77,-842.5 338.53,-842.5 355.24,-842.5"/><path fill="none" stroke="#047857" stroke-width="2" stroke-dasharray="5,2" d="M291.33,-842.5C309.77,-842.5 338.53,-842.5 355.24,-842.5"/>
<polygon fill="#047857" stroke="#047857" stroke-width="2" points="275.3,-849 275.3,-836 277.9,-836 277.9,-849 275.3,-849"/>
<polyline fill="none" stroke="#047857" stroke-width="2" points="274,-842.5 280.5,-842.5 "/>
<ellipse fill="none" stroke="#047857" stroke-width="2" cx="285.7" cy="-842.5" rx="5.2" ry="5.2"/>
<polygon fill="#047857" stroke="#047857" stroke-width="2" points="367.2,-836 367.2,-849 364.6,-849 364.6,-836 367.2,-836"/>
<polyline fill="none" stroke="#047857" stroke-width="2" points="368.5,-842.5 362,-842.5 "/>
<polygon fill="#047857" stroke="#047857" stroke-width="2" points="360.7,-836 360.7,-849 358.1,-849 358.1,-836 360.7,-836"/>
<polyline fill="none" stroke="#047857" stroke-width="2" points="362,-842.5 355.5,-842.5 "/>
</g>
<!-- enum&#45;skill_level -->
<g id="enum&#45;skill_level" class="node">
<title>enum&#45;skill_level</title>
<polygon fill="#475569" stroke="transparent" points="60,-1101.5 60,-1138.5 215,-1138.5 215,-1101.5 60,-1101.5"/>
<text text-anchor="start" x="67.51" y="-1114.3" font-family="Arial" font-size="18.00" fill="white">ENUM: skill_level</text>
<text text-anchor="start" x="115.49" y="-1077.3" font-family="Arial" font-size="18.00">begin</text>
<text text-anchor="start" x="123" y="-1040.3" font-family="Arial" font-size="18.00">mid</text>
<text text-anchor="start" x="113" y="-1003.3" font-family="Arial" font-size="18.00">senior</text>
<polygon fill="none" stroke="black" points="58.5,-989.5 58.5,-1139.5 215.5,-1139.5 215.5,-989.5 58.5,-989.5"/>
</g>
</g>
</svg>
